<?xml version="1.0" encoding="UTF-8" standalone="no"?>
<!-- Created with Inkscape (http://www.inkscape.org/) -->

<svg
   xmlns:dc="http://purl.org/dc/elements/1.1/"
   xmlns:cc="http://creativecommons.org/ns#"
   xmlns:rdf="http://www.w3.org/1999/02/22-rdf-syntax-ns#"
   xmlns:svg="http://www.w3.org/2000/svg"
   xmlns="http://www.w3.org/2000/svg"
   xmlns:sodipodi="http://sodipodi.sourceforge.net/DTD/sodipodi-0.dtd"
   xmlns:inkscape="http://www.inkscape.org/namespaces/inkscape"
   width="176.82446mm"
   height="80.671242mm"
   viewBox="0 0 176.82446 80.671239"
   version="1.1"
   id="svg987"
   inkscape:version="0.92.4 (5da689c313, 2019-01-14)"
   sodipodi:docname="Dua Lipa (2019).svg">
  <defs
     id="defs981" />
  <sodipodi:namedview
     id="base"
     pagecolor="#ffffff"
     bordercolor="#666666"
     borderopacity="1.0"
     inkscape:pageopacity="0.0"
     inkscape:pageshadow="2"
     inkscape:zoom="0.175"
     inkscape:cx="564.83088"
     inkscape:cy="-96.121819"
     inkscape:document-units="mm"
     inkscape:current-layer="layer1"
     showgrid="false"
     fit-margin-top="0"
     fit-margin-left="0"
     fit-margin-right="0"
     fit-margin-bottom="0"
     inkscape:window-width="1366"
     inkscape:window-height="745"
     inkscape:window-x="-8"
     inkscape:window-y="-8"
     inkscape:window-maximized="1" />
  <metadata
     id="metadata984">
    <rdf:RDF>
      <cc:Work
         rdf:about="">
        <dc:format>image/svg+xml</dc:format>
        <dc:type
           rdf:resource="http://purl.org/dc/dcmitype/StillImage" />
        <dc:title></dc:title>
      </cc:Work>
    </rdf:RDF>
  </metadata>
  <g
     inkscape:label="Layer 1"
     inkscape:groupmode="layer"
     id="layer1"
     transform="translate(61.197954,-42.729857)">
    <g
       transform="matrix(0.17687018,0,0,0.17687018,-63.617351,28.633814)"
       style="fill:none;fill-rule:evenodd;stroke:#000000;stroke-width:1;stroke-linecap:square;stroke-linejoin:bevel"
       id="g950">
      <path
         style="vector-effect:none;fill:#000000;fill-opacity:1;fill-rule:nonzero;stroke:none;stroke-width:1;stroke-linecap:square;stroke-linejoin:bevel"
         inkscape:connector-curvature="0"
         id="path16"
         d="m 8.4222218,118.2 c -0.9,0.2 -1.7,0.6 -2.6,0.9 -0.3,0.1 -0.4,0.3 -0.5,0.5 -0.1,0.3 -0.3,0.3 -0.6,0.3 -1.3,-0.2 -1.3,-0.2 -1.8,-1.4 -0.4,-1.2 -0.9,-2.3 -1.3,-3.5 -0.2,-0.6 -0.2,-1.2 0.1,-1.8 0.7,-1.6 1.4,-3.2 2.1,-4.8 0.2,-0.5 0.5,-0.9 0.8,-1.3 0.3,-0.3 0.5,-0.7 0.6,-1 0.4,-1.4 1.1,-2.6 1.7,-3.9 0.4,-0.9 0.4,-0.9 -0.3,-1.5 0.2,-0.4 0.3,-0.7 0.5,-1.1 1,-1.5 1.7,-3.2 2.7000004,-4.8 0.1,-0.1 0.1,-0.2 0.1999998,-0.3 0.4,-0.8 0.4,-1.1 -0.4999998,-1.5 -0.7000004,-0.3 -1.2000004,-0.9 -1.6000004,-1.5 -0.2,-0.3 -0.5,-0.7 -0.7,-1 -0.5,-0.7 -0.7,-1.4 -0.3,-2.3 0.1,-0.3 0.1,-0.6 0.1,-0.9 -0.2,-2.2 0.5,-4.1 1.7,-5.9 0.3999996,-0.7 0.8000004,-1.4 1.1000004,-2.1 0.2999998,-0.8 0.7999998,-1.4 1.3999998,-2 1.1,-0.9 1.8,-2.2 2.3,-3.5 0.3,-0.7 0.5,-1.3 1.1,-1.7 0.2,-0.1 0.2,-0.4 0.3,-0.6 0.1,-0.7 0.3,-1.4 0.9,-2 0.4,-0.4 0.5,-1 0.8,-1.6 0.3,-0.6 0.5,-1.2 0.9,-1.7 0,-0.1 0.1,-0.1 0.1,-0.2 0.6,-2 1.6,-3.9 1.8,-6 -0.3,0 -0.5,0.2 -0.8,0.3 -0.6,0.3 -1.2,0.7 -1.9,0.8 -0.8,0.2 -1.5,0.1 -1.9,-0.7 -0.1,-0.2 -0.3,-0.3 -0.5,-0.4 -0.7,-0.4 -1.2,-0.9 -1.4,-1.7 -0.4,-1.1 -0.7,-2.2 -1,-3.3 -0.3,-0.9 -0.2,-1.8 0.2,-2.7 0.2,-0.4 0.4,-0.7 0.5,-1.1 0.4,-0.9 0.9,-1.6 1.8,-2 0.6,-0.3 1,-0.7 1.3,-1.3 0.1,-0.3 0.4,-0.5 0.6,-0.8 0.8,-0.8 1.8,-1.5 2.7,-2.1 1,-0.6 1.9,-1.4 2.9,-2.1 1.4,-1 2.6,-2.1 3.8,-3.2 0.7,-0.7 1.5,-1.2 2.3,-1.8 0.8,-0.5 1.6,-1 2.6,-1.2 1,-0.3 1.8,-0.7 2.6,-1.3 0.6,-0.5 1.3,-0.8 2.1,-0.9 0.7,-0.1 1.2,-0.4 1.8,-0.7 2.4,-1.2 4.9,-1.7 7.6,-1.7 2.8,0 6.6,2.1 7.7,5.9 0.9,3.1 1.3,6.3 1.1,9.6 0,0.4 -0.2,0.9 -0.3,1.3 -0.1,0.5 -0.1,0.9 0.2,1.3 0.3,0.3 0.4,0.7 0.2,1.2 -0.3,1.1 -0.5,2.2 -0.8,3.3 0,0.2 -0.1,0.3 -0.1,0.5 0.2,-0.2 0.3,-0.3 0.4,-0.5 0.5,-1 1.1,-1.9 1.6,-2.9 0.7,-1.4 1.8,-2.3 3.4,-2.6 0.5,-0.1 1,-0.2 1.6,-0.3 1.3,-0.3 2.8,0.4 3.5,1.5 0.5,0.7 0.9,1.4 1.4,2.1 0.3,0.4 0.4,0.4 0.8,0.1 0.4,-0.3 0.7,-0.5 1.1,-0.8 2.6,-1.8 5.6,-1.4 7.8,0.2 0.4,0.3 0.8,0.7 1.4,0.8 0.4,0.1 0.6,0.5 0.8,0.9 0.4,1 0.9,2.1 1,3.2 0,0.1 0,0.2 0.1,0.4 0.4,-0.2 0.6,-0.6 0.8,-0.9 0.6,-0.9 1.2,-1.7 1.8,-2.7 1,-1.8 2.4,-3.2 4.1,-4.4 1.9,-1.4 3.7,-2.9 5.3,-4.6 0.7,-0.8 1.6,-1.5 2.5,-2 1.7,-0.9 3.4,-1.5 5.4,-1.3 0.9,0.1 1.800004,0.4 2.599998,0.8 0.4,0.2 0.5,0.5 0.6,0.8 0.4,0.8 0.5,0.9 1.2,0.4 0.2,-0.1 0.4,-0.3 0.6,-0.5 0.9,-0.8 1.9,-0.9 3,-0.5 1.9,0.8 3.6,2 5,3.7 0.7,0.8 1,1.8 1,2.8 0,0.3 0,0.6 0,0.9 0.6,0 1,-0.3 1.5,-0.4 0.6,-0.2 1.3,-0.3 1.9,-0.3 1,0 2.1,-0.1 3.1,-0.3 0.7,-0.1 1.3,-0.3 1.9,-0.7 0.7,-0.5 1.6,-0.6 2.4,-0.8 0.4,-0.1 0.9,-0.1 1.3,-0.3 0.6,-0.2 1,-0.6 1,-1.3 0,-0.5 0.1,-1 0.1,-1.4 0.1,-0.9 0.6,-1.5 1.5,-1.5 0.9,-0.1 1.6,-0.5 2.3,-1 1.8,-1.5 3.2,-3.2 4.8,-4.9 1.1,-1.2 2.1,-2.4 3.3,-3.5 0.4,-0.3 0.6,-0.8 0.8,-1.2 0.3,-0.9 0.9,-1.7 1.6,-2.3 1.2,-1.1 2.2,-2.4 3.2,-3.8 1,-1.4 2.1,-2.8 3.2,-4 1.1,-1.3 2.2,-2.6 3.3,-3.8 0.4,-0.5 0.9,-0.9 1.4,-1.4 0.8,-0.9 1.7,-1.8 2.5,-2.7 1.3,-1.4 2.5,-2.8 3.5,-4.40001 1,-1.5 1.7,-3 2.1,-4.7 0.1,-0.3 0.2,-0.5 0.2,-0.8 0.6,-2.6 3.8,-4.099998 6.1,-3.2 1,0.4 1.9,0.9 2.7,1.6 1,0.9 1.8,1.9 2.6,3 0.5,0.7 0.8,1.5 0.8,2.3 0,0.6 0,1.1 0.1,1.7 0.1,0.70001 -0.1,1.40001 -0.3,2.00001 -0.3,0.8 -0.7,1.6 -1.3,2.3 -1,1.3 -2,2.5 -3,3.7 -0.9,1.1 -1.9,2.1 -2.9,3 -0.6,0.5 -1.1,1.1 -1.7,1.6 -2.9,2.8 -5.3,6.1 -7.8,9.3 -0.3,0.4 -0.6,0.7 -0.9,1 -0.6,0.5 -1,1.1 -1.4,1.8 -1.4,2.7 -3.1,5.2 -5,7.5 -0.1,0.2 -0.4,0.3 -0.3,0.6 0.3,0.1 0.5,-0.1 0.7,-0.1 1.2,-0.4 2.4,-0.8 3.5,-1.1 0.7,-0.2 1.3,-0.5 1.9,-0.9 0.6,-0.5 1.4,-0.6 2.1,-0.4 1.1,0.3 1.8,0 2.5,-0.9 1,-1.2 2.1,-2.4 3.1,-3.5 0.6,-0.6 1.1,-1.3 1.4,-2 1,-1.9 2.4,-3.1 4.5,-3.5 0.8,-0.2 1.6,-0.4 2.4,-0.5 1.4,0 2.6,0.5 3.5,1.5 0.6,0.6 1.1,1.2 1.7,1.8 0.4,0.4 0.6,0.8 0.7,1.3 0.3,1.3 0.5,2.5 0.8,3.8 0.2,0.8 0.3,0.8 1.1,0.7 0.5,-0.1 1,-0.4 1.3,-0.9 0.3,-0.5 0.6,-1 0.9,-1.5 0.7,-1.1 1.6,-2.1 2.6,-3 1.5,-1.3 2.7,-2.9 3.8,-4.5 0.9,-1.2 1.7,-2.4 2.8,-3.5 1.3,-1.4 2.9,-2.4 4.7,-2.9 1.4,-0.4 2.7,-1 4.1,-1.2 0.9,-0.2 1.7,-0.1 2.6,0.1 0.7,0.2 1.4,0.3 2.1,0.3 1.9,0 3.4,0.7 4.9,1.8 0.6,0.4 1.1,0.9 1.7,1.4 0.6,-0.6 1.2,-1.1 1.8,-1.7 1.4,-1.3 2.9,-2.5 4.4,-3.7 1.7,-1.3 3.6,-1.7 5.7,-1.3 0.7,0.1 1.5,0.3 2.2,0.6 0.4,0.1 0.7,0.1 1,-0.1 0.2,-0.2 0.5,-0.4 0.8,-0.6 1.3,-1.2 2.9,-1.3 4.6,-0.9 1.3,0.3 2.4,0.9 3.3,1.8 1.2,1.2 1.5,2.7 1.3,4.3 0,0.5 -0.1,0.9 -0.2,1.5 0.9,-0.2 1.7,0 2.5,0.1 0.1,0 0.3,0.1 0.4,0 1,-0.2 2,-0.1 2.9,-0.1 1,0 1.9,-0.3 2.8,-0.5 2.6,-0.7 5.3,-1.1 8,-1 1.1,0 2.1,-0.3 3.1,-0.5 1.7,-0.4 3.4,-0.8 5,-1.2 0.8,-0.2 1.5,-0.3 2.3,-0.1 0.3,0.1 0.5,0.2 0.7,0.5 0.4,0.7 0.8,1.3 1.2,2 0.4,0.7 0.5,1.5 0.6,2.3 0,0.4 0,0.8 0,1.1 0,0.7 0.1,1.4 0.5,2 0.2,0.4 0.1,0.6 -0.2,0.9 -0.7,0.6 -1.6,1 -2.4,1.4 -1,0.4 -2,0.8 -3,1.1 -1.1,0.3 -2,0.8 -2.9,1.4 -0.8,0.5 -1.6,0.9 -2.6,1.1 -3.2,0.7 -6.3,1.3 -9.4,2.3 -1.2,0.4 -2.5,0.5 -3.8,0.6 -1.8,0.2 -3.7,0.3 -5.5,0.8 -0.4,0.1 -0.9,0.3 -1.3,0.4 -2.5,1 -5.1,1.4 -7.7,1.2 -1.4,-0.1 -2.6,-0.5 -3.8,-1.1 -0.7,-0.3 -1.2,-0.2 -1.7,0.3 -0.6,0.6 -1.2,1 -1.9,1.5 -2,1.3 -4.2,1.6 -6.5,1 -1,-0.3 -1.9,-0.6 -2.8,-1.1 -0.5,-0.2 -0.9,-0.5 -1.5,-0.7 -0.3,0.5 -0.4,1 -0.6,1.5 -0.1,0.3 -0.2,0.5 -0.6,0.4 -0.2,-0.1 -0.4,-0.1 -0.6,-0.1 -0.8,-0.2 -1.5,0.1 -2,0.7 -0.1,0.1 -0.2,0.2 -0.3,0.4 -1,1.5 -2.4,2.5 -4.2,2.9 -0.5,0.1 -0.8,0.4 -1,0.8 -0.2,0.4 -0.4,0.9 -0.6,1.3 -0.1,0.3 -0.3,0.4 -0.6,0.4 -2.1,0.2 -4.2,0.5 -6.3,0.1 -0.5,-0.1 -1.1,-0.3 -1.6,-0.5 -0.3,-0.1 -0.4,-0.1 -0.6,0.2 -0.8,1.4 -1.8,2.6 -2.9,3.7 -0.4,0.4 -0.7,1 -0.9,1.6 -0.3,0.9 -0.8,1.7 -1.3,2.4 -1.5,1.9 -2.7,4 -4,6 -0.6,0.9 -1.3,1.8 -2,2.7 -2.2,2.7 -4.1,5.6 -5.8,8.6 -0.6,1.1 -1.3,2.1 -2.3,2.8 -1.3,1 -2.6,2.1 -4.4,1.9 -0.1,0 -0.2,0 -0.2,0 -1.3,-0.3 -2.5,-0.1 -3.7,0.2 -0.5,0.1 -0.8,0 -1.2,-0.3 -0.4,-0.3 -0.8,-0.6 -1.2,-1 -0.6,-0.5 -0.9,-1.1 -1.1,-1.8 -0.4,-1.6 -0.3,-3.2 0.6,-4.7 0.4,-0.7 0.7,-1.5 1.2,-2.2 0.9,-1.5 2,-2.9 3.2,-4.2 2,-2 3.6,-4.3 5.2,-6.6 0.7,-0.9 1.3,-2 1.8,-3.1 -0.8,0.2 -1.5,0.3 -2.2,0.4 -1.7,0.2 -3.3,0.2 -4.8,-0.7 -0.7,-0.5 -1.5,-1 -2.2,-1.5 -0.3,-0.2 -0.6,-0.4 -0.9,-0.7 -0.4,-0.4 -0.8,-0.4 -1.3,-0.3 -0.3,0.1 -0.7,0.2 -1,0.4 -1.8,1.3 -3.8,1.7 -5.9,2.1 -0.4,0.1 -0.8,0.2 -1.3,0.2 -1,0.2 -1.8,0.5 -2.6,1.2 -0.8,0.8 -1.9,1.2 -3,1.4 -0.6,0.1 -1.2,0.4 -1.7,0.7 -0.6,0.4 -1.2,0.8 -1.8,1.3 -2.2,1.9 -4.8,3.2 -7.5,4.2 -0.9,0.3 -1.8,0.6 -2.7,0.9 -0.6,0.2 -1.1,0.4 -1.7,0.7 -2.2,1 -4.4,0.8 -6.4,-0.7 -0.8,-0.6 -1.5,-1.2 -2.2,-1.9 -0.2,-0.2 -0.4,-0.3 -0.7,-0.2 -0.3,0.1 -0.5,0.1 -0.8,0.2 -0.5,0.1 -1,0.1 -1.5,-0.3 -0.4,-0.4 -0.8,-0.4 -1.3,-0.2 -0.7,0.3 -1.4,0.4 -2.1,0.6 -2.1,0.6 -4,1.6 -5.7,2.9 -2,1.4 -4.2,2.7 -6.599902,3.2 -1.599996,0.3 -2.999996,-0.1 -4.299996,-1 -0.4,-0.3 -0.7,-0.6 -1.1,-0.9 -0.7,-0.6 -1.2,-0.6 -1.9,-0.2 -0.9,0.5 -1.9,0.9 -2.8,1.3 -1,0.4 -1.9,0.4 -2.9,0.2 -0.5,-0.1 -1,-0.3 -1.5,-0.4 -0.5,-0.2 -0.9,-0.1 -1.2,0.2 -1.8,1.3 -3.7,2.4 -5.4,3.8 -0.4,0.3 -0.7,0.6 -1.1,1 -0.6,0.6 -1.2,1.1 -1.9,1.3 -2,0.7 -4.1,1.4 -6.1,2 -1.3,0.4 -2.7,0.4 -4.1,0.1 -1,-0.2 -1.8,-0.8 -2.6,-1.4 -0.7,-0.6 -0.7,-0.6 -1.4,0.1 -0.8,0.9 -1.7,1.6 -2.8,2.1 -0.4,0.2 -0.8,0.4 -1.2,0.7 -1.6,1.2 -3.4,1.2 -5.2,0.6 -0.7,-0.2 -1.3,-0.6 -1.9,-1 -0.4,-0.2 -0.7,-0.5 -1.1,-0.7 0.1,-0.3 0.3,-0.5 0.5,-0.7 0.7,-0.8 1.4,-1.4 2.2,-2.1 0.6,-0.5 0.9,-0.5 1.2,0.2 0.3,0.7 0.8,1.2 1.4,1.6 0.5,0.3 1.1,0.6 1.6,0.8 0.7,0.2 1.3,0.2 1.9,-0.2 0.7,-0.4 1.4,-0.8 2.1,-1.3 0.2,-0.1 0.5,-0.3 0.6,-0.5 0.6,-1.3 2,-1.9 2.8,-3 0.1,-0.2 0.3,-0.3 0.4,-0.5 0.6,-0.6 1,-0.6 1.6,0 0.1,0.2 0.2,0.3 0.4,0.5 0.3,0.5 0.7,0.9 1,1.4 0.6,0.7 1.3,1 2.2,1 0.7,-0.1 1.4,-0.2 2,-0.4 1.1,-0.4 2.1,-0.8 3.2,-1.2 1.2,-0.4 2.2,-1.1 3.1,-2 2,-2 4.2,-3.6 6.4,-5.3 0.2,-0.2 0.4,-0.4 0.7,-0.3 1.1,0.1 2.3,0 3.4,0.5 0.7,0.3 1.3,0.2 1.9,-0.1 0.3,-0.2 0.5,-0.4 0.8,-0.5 1,-0.4 1.7,-1 2.5,-1.7 0.3,-0.3 0.6,-0.6 1,-0.8 0.6,-0.4 0.8,-0.3 1.2,0.2 0.3,0.4 0.6,0.8 0.9,1.2 0.7,0.9 1.6,1.4 2.7,1.4 1.299998,0.1 2.499898,-0.4 3.599898,-1.1 0.9,-0.6 1.7,-1.3 2.6,-1.9 1,-0.8 2.1,-1.4 3.4,-1.9 1.5,-0.6 3.1,-1.2 4.6,-1.7 2.6,-0.8 5.1,-1.8 7.6,-2.8 0.6,-0.3 1.2,-0.5 1.8,-0.9 0.8,-0.5 1.5,-1.2 1.9,-2.1 0.3,-0.8 -0.1,-1.5 -0.9,-1.7 -0.2,0 -0.4,0 -0.6,0 -1.9,0.3 -3.9,0.6 -5.7,1.2 -2.6,0.9 -5.2,1.9 -7.8,2.7 -2,0.6 -3.9,1.4 -5.6,2.6 0,0 -0.1,0.1 -0.1,0.1 -0.1,0.1 -0.3,0.2 -0.4,0 -0.1,-0.1 0,-0.2 0,-0.3 0.2,-0.3 0.3,-0.6 0.5,-0.8 0.8,-1 1.6,-2 2.4,-3.1 0.2,-0.3 0.5,-0.6 0.7,-1 0.8,-1.4 0.5,-2.9 -0.8,-3.8 -0.3,-0.2 -0.7,-0.5 -1,-0.7 -1.1,-0.6 -2,-0.5 -2.9,0.3 -0.4,0.4 -0.8,0.8 -1.2,1.1 -0.4999,0.5 -0.5999,0.4 -0.999902,0 -0.499992,-0.6 -1.099996,-1.2 -1.599996,-1.7 -0.5,-0.5 -1.2,-0.8 -1.9,-0.7 -1.4,0.2 -2.6,0.7 -3.6,1.8 -0.8,0.9 -1.7,1.7 -2.5,2.5 -1.3,1.2 -2.6,2.4 -4,3.6 -1.2,1 -2,2.2 -2.8,3.6 -0.4,0.8 -0.9,1.6 -1.3,2.4 -0.8001,1.3 -1.8001,2.4 -3.2,3.2 -0.5,0.3 -1,0.6 -1.4,1 -1.6,1.4 -3.4,2.3 -5.4,3.1 -0.1,0.1 -0.3001,0.1 -0.4,0.1 -0.4001,0.1 -0.7,-0.2 -0.7,-0.6 0,-0.1 0.1,-0.3 0.1,-0.4 0.3,-1.6 1.1999,-2.9 2,-4.2 0.6,-1 1.1,-2.1 1.6,-3.2 0.5,-1.1 -0.2,-2.2 -1.3001,-2.5 -0.3,-0.1 -0.6,-0.1 -0.9,-0.1 -1.7,-0.2 -3.2,0.7 -3.7,2.3 -0.3,0.9 -0.8,1.6 -1.5,2.1 -1,0.8 -1.9,1.6 -2.9,2.4 -0.5,0.4 -1,0.9 -1.3,1.5 -0.5,0.9 -1.3,1.4 -2.2,1.8 -0.1,0.1 -0.3,0.1 -0.4,0 0,-0.3 0.2,-0.5 0.3,-0.7 0.5,-0.8 1,-1.7 1.5,-2.5 0.6,-1 1.3,-2.1 1.9,-3.1 0.3,-0.5 0.5,-0.9 0.5,-1.5 -0.3,-2.1 -1.4,-3.2 -3.5,-3.3 0,0 -0.1,0 -0.1,0 -0.9,0 -1.5,0.3 -2,1 -0.2,0.4 -0.4,0.9 -0.6,1.3 -0.4,0.8 -0.7,1.6 -1.3,2.2 -0.7,0.7 -1.2,1.5 -1.8,2.3 -0.3,0.4 -0.5,0.8 -0.8,1.1 -1.5,1.5 -2.9,3.1 -4.5,4.5 -0.9,0.8 -1.8,1.7 -2.5,2.7 -1.3,1.8 -2.6,3.5 -4.2,5.1 -1.5,1.5 -2.6,3.3 -3.1,5.4 -0.0999,0.4 -0.0999,0.9 -0.0999,1.3 0.0999,0.9 0.5999,1.4 1.5,1.6 0.2,0 0.5,0.1 0.7,0.1 -0.7,0.4 -1.3,0.7 -1.8,1.3 -0.2,0.2 -0.4,0.2 -0.6,0 -0.4,-0.5 -0.9,-0.5 -1.4,-0.5 -0.5,0.1 -1.1,0.1 -1.7,0.1 -0.9001,0.1 -1.6,-0.2 -2.2,-0.9 -0.6,-0.6 -0.9001,-1.3 -1.3,-2 0.0999,-0.3 0.3,-0.5 0.5,-0.7 1.2,-1.5 2.4,-3 3.5,-4.7 0.4,-0.6 0.9,-1.2 1.3,-1.7 1,-1.2 2,-2.3 2.9,-3.6 0.4,-0.6 0.9,-1.2 1,-1.9 0.4,-1.8 1.2,-3.4 2.2,-4.9 0.4,-0.7 0.9,-1.5 1.1,-2.3 0.4,-1.4 1.0999,-2.5 2,-3.6 1.0999,-1.2 1.9,-2.7 2.5,-4.2 0.2,-0.6 0.5,-1.3 0.8,-1.9 0.2999,-0.5 0.4,-1.1 0.4,-1.7 0,-1.3 -0.1,-2.5 -0.3,-3.8 -0.2,-1.6 -0.6,-3.2 -0.9,-4.8 -0.5,-2.5 -2.2,-3.9 -4.7,-3.8 -2.9001,0 -5.5,0.9 -7.8,2.6 -1.4001,1 -2.9001,1.8 -4.5,2.3 -2,0.7 -3.8,1.8 -5.3,3.3 -0.3,0.3 -0.5,0.5 -0.8,0.8 -1.9,1.7 -3.7,3.4 -5.5,5.2 -0.2,0.2 -0.4,0.4 -0.7,0.6 -1.3,0.5 -1.8,1.7 -2,2.9 -0.1,0.9 0.5,1.8 1.3,2 1,0.3 1.6,-0.1 2.1,-1.1 0.1,-0.3 0.2,-0.6 0.3,-0.8 0.4,-0.9 1,-1.2 1.9,-0.9 0.2999,0.1 0.5,0.2 0.7999,0.2 0.6,0.1 1.1,0 1.5,-0.5 0.7001,-0.8 1.7001,-1.1 2.4,-1.7 0.4,0.3 0.8,0.5 1.1,0.9 0.8,1.2 1.7001,2.3 1.9,3.8 0.1,1.1 0.5,2.3 0.7,3.4 0.3,-0.8 0.5,-1.5 0.7,-2.3 0.2,-1 0.7,-1.8 1.4001,-2.5 2.2,-2.3 4,-4.9 5.2,-7.8 0.2,-0.4 0.3,-0.7 0.5,-1.1 0.5999,-1 0.8,-2 0.5999,-3.1 0.6,-0.3 1.1,-0.7 1.8,-0.7 0.6,0 1.3,0.1 1.9001,0.2 0.4,0.1 0.7,0.3 0.9,0.7 0.3,0.5 0.5,1.1 0.7,1.7 0.2,0.6 0.2,1.3 -0.1,1.9 -0.6,1.5 -1.2,3 -1.8,4.6 -0.7,2 -1.8,3.9 -3,5.7 -0.7,1 -1.4,2.1 -2.1,3 -0.4,0.5 -0.7,1.1 -0.6,1.8 0.1,0.3 -0.1,0.6 -0.2,0.9 -0.6,1.4 -1.2,2.7 -1.7,4.1 -0.7,1.6 -1.6,3.1 -2.9,4.3 -0.7,0.7 -1.4,1.4 -1.9,2.2 -1.2,1.6 -2.4,3.1 -3.7,4.6 -0.5,0.6 -1,1.3 -1.4,2 -0.8,1.7 -2,3.1 -3.1,4.6 -0.6,0.8 -1.3,1.3 -2.3,1.4 -0.6,0.1 -0.8,0.3 -0.9,1 0,0.6 -0.1,1.3 -0.1,1.9 0,0.6 -0.1,1.3 -0.4,1.8 -1.3,2.8 -2.7,5.5 -4.5,8 -1.4,1.9 -2.2,4 -3.2,6.1 -0.1,0.2 -0.1,0.4 -0.2,0.6 -0.1,0.7 -0.4,1.4 -0.8,2 -0.6,1 -1,2 -1.50005,3.1 -0.5999998,1.5 -1.2000006,3 -1.8000002,4.4 -5e-5,0.6 -0.20005,1.1 -0.20005,1.6 M 176.92222,45.2 c -0.2,0.5 -0.4,0.8 -0.6,1.1 -0.8,1.1 -1.5,2.1 -2.4,3.1 -0.5,0.6 -0.9,1.1 -1.2,1.8 -0.9,2.3 -2.2,4.3 -3.5,6.4 -1.3,2 -2.6,3.9 -4.3,5.6 -1.6,1.7 -2.9,3.6 -3.8,5.8 -0.3,0.7 -0.3,1.3 -0.1,2 0.3,1 0.6,1.1 1.4,0.5 0.5,-0.4 0.9,-0.5 1.5,-0.3 1.5,0.4 2.6,-0.1 3.3,-1.4 0.1,-0.2 0.2,-0.3 0.2,-0.5 0.6,-1.4 1.4,-2.7 2.2,-4 2.8,-4.4 5.9,-8.5 8.6,-12.9 0.6,-1 1.3,-1.9 1.7,-3 0.2,-0.8 0.6,-1.4 1.1,-2.1 0.7,-0.8 1.4,-1.6 1.9,-2.5 1.8,-2.9 3.7,-5.6 5.7,-8.3 1.2,-1.6 2.6,-3.1 4.1,-4.4 1.3,-1.1 2.7,-1.8 4.3,-2.3 0.2,-0.1 0.3,-0.1 0.5,-0.1 0.6,0 0.8,0.2 0.5,0.7 -1,2.1 -1,2.4 -3.3,2.9 -0.1,0 -0.2,0.1 -0.3,0.1 -1.4,0.3 -2.6,1 -3.7,2 -0.7,0.6 -1.2,1.3 -1.3,2.2 -0.1,0.6 -0.4,0.9 -1,1 -0.4,0.1 -0.8,0.3 -1.1,0.6 -0.8,0.8 -0.6,1.9 0.3,2.5 0.2,0.1 0.4,0.2 0.7,0.3 1.6,0.3 3.2,0.2 4.7,-0.5 0.3,-0.2 0.7,-0.4 0.8,-0.8 0.3,-0.7 0.8,-1 1.5,-1.2 1.6,-0.4 2.9,-1.3 2.9,-3.3 0,-0.4 0.2,-0.6 0.6,-0.7 0.2,-0.1 0.4,-0.1 0.7,-0.1 0.6,0 1.3,-0.2 1.8,-0.5 0.6,-0.4 1.2,-0.7 1.8,-1.1 0.9,-0.6 1.5,-1.5 1.7,-2.6 0.2,-1.6 0.3,-3.1 -0.5,-4.6 -0.7,-1.4 -1.8,-2.3 -3.4,-2.7 -0.5,-0.1 -1.1,-0.2 -1.6,-0.3 -2.6,-0.5 -5.1,-0.2 -7.5,0.8 -1.3,0.5 -2.4,1.3 -3.2,2.4 -0.3,0.4 -0.6,0.8 -0.9,1.3 -1.5,2.4 -3.4,4.7 -5.4,6.8 -0.7,0.8 -1.3,1.6 -1.8,2.5 -0.4,0.6 -0.7,1.2 -1.2,1.8 -0.4,0.6 -1,0.9 -1.7,1.1 -0.9,0.2 -1.7,0.5 -2.6,0.9 -2.3,0.8 -4.6,1.7 -6.9,2.5 -0.4,0.2 -0.9,0.2 -1.3,0.2 -0.4,-0.1 -0.5,-0.2 -0.4,-0.6 0.2,-0.6 0.4,-1.1 0.9,-1.6 0.5,-0.4 1.1,-0.9 1.6,-1.3 1,-0.9 2.3,-1.6 3.2,-2.8 0.7,-0.9 0.9,-2.1 0.2,-2.9 -0.5,-0.6 -1.1,-1.3 -1.7,-1.8 -0.5,-0.5 -1.2,-0.6 -1.8,-0.4 -0.3,0.1 -0.6,0.2 -0.9,0.3 -0.9,0.3 -1.6,0.8 -1.9,1.7 -0.2,0.5 -0.5,1 -0.9,1.4 -1.1,1.3 -2.1,2.5 -3.2,3.8 -0.6,0.7 -1.2,1.5 -1.6,2.4 -0.5,0.9 -0.5,0.9 -1.4,0.3 -1,-0.7 -1.4,-0.7 -2.5,0 -1,0.8 -2.2,1.3 -3.4,1.6 -0.9,0.2 -1.7,0.4 -2.6,0.6 -2.1,0.4 -4.1,1 -5.8,2.3 -0.5,0.3 -1,0.7 -1.5,0.9 -1.3,0.5 -2.4,1.4 -3.4,2.3 -0.4,0.3 -0.8,0.7 -1.2,1 -0.9,0.7 -1.8,1.4 -2.8,2 -0.9,0.5 -1.8,0.9 -2.8,1 -0.3,0 -0.7,0.1 -0.8,-0.2 -0.1,-0.4 0.1,-0.7 0.4,-0.9 0.1,-0.1 0.3,-0.2 0.5,-0.3 0.4,-0.2 0.8,-0.5 1.2,-0.7 0.7,-0.4 1.3,-0.9 1.8,-1.5 1.4,-1.8 2.8,-3.7 4.2,-5.6 0.5,-0.7 1,-1.5 1.8,-1.9 0.9,-0.6 1.8,-1.4 2.6,-2.1 2.2,-2.1 4.3,-4.3 5.5,-7.2 0.2,-0.4 0.4,-0.8 0.6,-1.2 0.2,-0.4 0.4,-0.7 0.7,-1 1.3,-1.3 2.3,-2.7 3.3,-4.1 2.1,-2.8 4.2,-5.6 6.7,-8 1.3,-1.2 2.4,-2.5 3.5,-3.9 0.7,-0.9 1.5,-1.9 2.1,-2.9 0.8,-1.2 0.8,-2.5 0,-3.70001 -0.8,-1.2 -1.9,-2 -3,-2.7 -0.5,-0.3 -0.9,-0.2 -1.2,0.3 -0.3,0.5 -0.6,1 -0.7,1.7 -0.2,0.9 -0.4,1.90001 -0.9,2.70001 -1.3,2.3 -2.6,4.6 -4.4,6.6 -2.1,2.3 -4.2,4.7 -6.2,7.1 -2.4,2.9 -4.6,6.1 -6.9,9 -0.3,0.4 -0.6,0.8 -0.7,1.3 -0.1,0.4 -0.3,0.7 -0.6,1 -1.2,1.3 -2.3,2.5 -3.5,3.8 -0.9,1 -1.9,2 -3,2.8 -0.9,0.7 -1.7,1.5 -2.4,2.5 -0.5,0.8 -1,1.6 -1.5,2.5 -0.8,1.4 -1.6,2.7 -2.9,3.6 -0.3,0.2 -0.5,0.5 -0.7,0.7 -0.6,0.8 -0.9,1.6 -0.9,2.6 0,0.8 -0.1,1 -0.9,1.3 -0.4,0.2 -0.8,0.4 -1,0.8 -0.8,1.2 -0.6,2.4 0.5,3.3 0.4,0.4 0.9,0.7 1.5,0.9 0.8,0.3 1.7,0.3 2.4,-0.1 1.4,-0.7 2.8,-1.2 4.3,-1.8 2.1,-0.8 4.1,-1.9 5.7,-3.5 1.3,-1.2 2.8,-2.2 4.5,-2.8 0.5,-0.2 1,-0.4 1.4,-0.7 1.3,-1.1 2.8,-1.7 4.4,-2 0.5,-0.1 0.9,-0.2 1.4,-0.3 1.3,-0.3 2.5,-0.7 3.7,-1.4 0.6,-0.4 1.2,-0.7 1.9,-0.9 0.7,-0.3 1.3,-0.5 2,-0.8 0.7,-0.3 0.9,-0.3 1.4,0.3 0.5,0.6 1.1,1.3 1.6,1.9 0.5,0.6 1.2,1 2,1.1 0.3,0 0.7,0.1 1,0.2 0.7,0.2 1.5,0 2.2,-0.2 1.7,-0.7 3.4,-1.4 5,-2.2 1.4,-1 2.8,-1.6 4.4,-2.3 m 59,-14.1 c 1,0 1.8,0 2.6,-0.1 1.5,-0.2 2.9,-0.5 4.4,-0.6 0.5,0 1,-0.1 1.4,-0.2 1.7,-0.5 3.5,-0.9 5.2,-1.3 1.2,-0.3 2.2,-0.7 3.2,-1.5 0.7,-0.6 1.4,-0.9 2.3,-1.1 1.3,-0.3 2.4,-1.1 3.3,-2.1 0.1,-0.2 0.2,-0.3 0.3,-0.5 0.2,-0.5 0,-0.9 -0.5,-1.1 -0.3,-0.1 -0.7,-0.1 -1,0 -1.7,0.4 -3.3,0.8 -5,1.2 -1,0.2 -2,0.5 -3,0.5 -2.5,0.1 -5,0.5 -7.5,1.2 -1.3,0.4 -2.6,0.6 -3.9,0.6 -0.7,0 -1.5,0.1 -2.2,0.2 -0.6,0.1 -1.1,0.1 -1.7,0 -1.2,-0.3 -2.4,-0.1 -3.4,0.5 -0.2,0.1 -0.5,0.3 -0.8,0.4 -0.4,0.1 -0.8,0.3 -1.1,0 -0.3,-0.3 -0.1,-0.7 0,-1.1 0.2,-0.7 0.5,-1.4 0.8,-2.1 0.2,-0.7 0.4,-1.5 0.4,-2.3 0,-0.5 -0.2,-1 -0.6,-1.4 -1.3,-1.2 -2.9,-1.1 -3.8,0.4 -0.3,0.5 -0.7,1 -1.1,1.4 -0.4,0.4 -0.7,0.4 -1.2,0.1 -0.3,-0.2 -0.5,-0.4 -0.8,-0.6 -1.3,-0.9 -2.7,-1.2 -4.2,-1 -0.9,0.1 -1.6,0.6 -2.3,1.2 -1.7,1.4 -3.2,2.9 -4.8,4.4 -0.8,0.7 -1.6,1.5 -2.1,2.4 -0.1,0.2 -0.3,0.4 -0.5,0.6 -0.9,1 -1,2 -0.4,3.1 0.5,0.8 1.1,1.6 1.8,2.2 0.6,0.5 1.3,0.9 2.1,1 1.7,0.4 3.3,0 4.7,-1 0.8,-0.6 1.5,-1.3 2.2,-1.9 0.5,-0.5 1.1,-0.9 1.7,-1.3 0.7,-0.3 0.8,-0.3 1.2,0.3 0.4,0.6 1,1 1.7,1.3 0.7,0.3 1.5,0.5 2.3,0.5 2.2,0.1 4.2,-0.4 6.2,-1.3 1.3,-0.8 2.7,-1.3 4.1,-1 M 30.422222,63.9 c 0,-0.5 -0.1,-1 -0.2,-1.4 -0.2,-1.1 -0.6,-2.1 -1.2,-3 -0.7,-0.9 -1.7,-0.9 -2.5,0 -0.4,0.5 -0.6,1 -0.8,1.6 -0.9,2.7 -1.8,5.4 -2.7,8.1 -0.4,1.2 -1,2.2 -1.9,3.1 -0.5,0.5 -0.9,1 -1.3,1.6 -0.9,1.3 -1.5,2.7 -1.9,4.2 -0.4,1.6 -1.1,3 -2.2,4.2 -0.7,0.8 -1.3,1.8 -1.7,2.7 -0.3,0.7 -0.6,1.4 -1,2 -0.9,1.8 -0.8,3.6 -0.1,5.4 0.2,0.4 0.4,0.8 0.9,0.9 1.2,0.1 2.4,0 3.5,-0.7 0.2,-0.1 0.3,-0.4 0.5,-0.6 0.1,-0.2 0.2,-0.5 0.4,-0.7 0.9,-2 1.8,-4 2.7,-6 0.3,-0.8 0.7,-1.5 1.3,-2.1 0.7,-0.7 1.2,-1.5 1.6,-2.4 0.6,-1.2 1,-2.4 1.4,-3.6 0.3,-0.9 0.5,-1.8 0.9,-2.7 1.1,-2.1 2,-4.2 3.3,-6.1 0.6,-1.4 0.9,-2.9 1,-4.5 M 128.02222,45.1 c -0.2,0 -0.4,0.1 -0.6,0.2 -0.4,0.4 -0.4,0.8 -0.2,1.3 0.2,0.5 0.2,1.2 1,1.3 0.5,0.1 1,-0.1 1.4,-0.5 0.3,-0.3 0.3,-0.6 0.2,-1 -0.3,-0.7 -1.1,-1.3 -1.8,-1.3 m 18,-2.5 c -0.1,0 -0.1,0 0,0 0,0.1 0,0.1 0,0.1 0,0 0,0 0,-0.1"
         transform="matrix(3.82979,0,0,3.82979,8,76.489401)" />
      <g
         style="fill:#000000;fill-opacity:1;stroke:none"
         id="g36"
         transform="matrix(3.82979,0,0,3.82979,8,76.4894)">
        <path
           style="vector-effect:none;fill-rule:nonzero"
           inkscape:connector-curvature="0"
           id="path34"
           d="m 185.1,19.9 c 0,3.1 -1.5,5.2 -4.1,6.6 -1.4,0.7 -2.8,0.7 -4.2,0 -1.5,-0.7 -2.8,-1.8 -3.9,-3.1 -0.3,-0.3 -0.5,-0.7 -0.7,-1.1 -0.5,-1.2 -0.7,-2.4 -0.8,-3.6 0,-0.9 0.2,-1.8 0.7,-2.5 0.9,-1.4 1.9,-2.6 3.3,-3.5 2.2,-1.5 6.4,-1 7.9,1.9 0.5,0.9 1,1.7 1.4,2.7 0.3,0.9 0.4,1.7 0.4,2.6 m -10.5,-1.5 c -0.1,1.4 0.4,2.4 1.6,3.2 0.5,0.4 1,0.8 1.6,1.1 0.7,0.4 1.7,0.4 2.3,-0.1 0.7,-0.6 1.2,-1.3 1.5,-2.2 0.3,-0.8 0.3,-1.6 -0.1,-2.4 -0.4,-0.7 -0.7,-1.4 -1.1,-2.1 -0.9,-1.5 -2.5,-1.7 -3.7,-0.5 -0.5,0.5 -0.9,1 -1.3,1.5 -0.7,0.3 -1,0.8 -0.8,1.5" />
      </g>
      <g
         style="fill:#000000;fill-opacity:1;stroke:none"
         id="g66"
         transform="matrix(3.82979,0,0,3.82979,8,76.4894)">
        <path
           style="vector-effect:none;fill-rule:nonzero"
           inkscape:connector-curvature="0"
           id="path64"
           d="m 90.2,59.2 c -0.2,0 -0.4,0 -0.7,-0.2 -0.4,-0.2 -0.5,-0.4 -0.2,-0.8 0.3,-0.5 0.7,-1 1.1,-1.4 1.6,-1.6 3.2,-3.1 4.8,-4.7 0.4,-0.4 0.9,-0.7 1.4,-0.8 0.9,-0.1 1.2,0.3 0.9,1.1 -0.3,0.8 -0.7,1.4 -1.3,1.9 -1.6,1.4 -3.2,2.8 -4.9,4.2 -0.3,0.4 -0.6,0.6 -1.1,0.7" />
      </g>
      <g
         style="fill:#f3f179;fill-opacity:1"
         id="g927">
        <g
           transform="matrix(3.82979,0,0,3.82979,8,76.4894)"
           id="g24"
           style="fill:#f3f179;fill-opacity:1;stroke:none">
          <path
             d="m 41.8,83.9 c -0.2,0 -0.5,0 -0.7,-0.1 -0.9,-0.2 -1.4,-0.7 -1.5,-1.6 0,-0.4 0,-0.9 0.1,-1.3 0.5,-2.1 1.6,-3.9 3.1,-5.4 1.5,-1.6 2.9,-3.3 4.2,-5.1 0.7,-1 1.5,-1.9 2.5,-2.7 1.6,-1.4 3,-3 4.5,-4.5 0.3,-0.3 0.6,-0.7 0.8,-1.1 0.6,-0.8 1.1,-1.6 1.8,-2.3 0.6,-0.6 0.9,-1.4 1.3,-2.2 0.2,-0.4 0.4,-0.9 0.6,-1.3 0.5,-0.7 1.1,-1.1 2,-1 0,0 0.1,0 0.1,0 2,0.1 3.2,1.2 3.5,3.3 0.1,0.6 -0.2,1 -0.5,1.5 -0.6,1 -1.3,2.1 -1.9,3.1 -0.5,0.8 -1,1.7 -1.5,2.5 -0.1,0.2 -0.3,0.4 -0.3,0.7 0.2,0.1 0.3,0.1 0.4,0 0.9,-0.4 1.7,-0.9 2.2,-1.8 0.3,-0.6 0.8,-1 1.3,-1.5 1,-0.8 1.9,-1.6 2.9,-2.4 0.7,-0.6 1.2,-1.3 1.5,-2.1 0.6,-1.6 2,-2.5 3.7,-2.3 0.3,0 0.6,0.1 0.9,0.1 1.2,0.3 1.8,1.4 1.3,2.5 -0.5,1.1 -1,2.2 -1.6,3.2 -0.8,1.3 -1.7,2.6 -2,4.2 0,0.1 -0.1,0.3 -0.1,0.4 0,0.4 0.2,0.6 0.7,0.6 0.1,0 0.3,-0.1 0.4,-0.1 1.9,-0.8 3.8,-1.7 5.4,-3.1 0.4,-0.4 0.9,-0.7 1.4,-1 1.4,-0.8 2.4,-1.9 3.2,-3.2 0.5,-0.8 0.9,-1.6 1.3,-2.4 0.7,-1.4 1.6,-2.6 2.8,-3.6 1.3,-1.2 2.7,-2.4 4,-3.6 0.9,-0.8 1.8,-1.6 2.5,-2.5 0.9,-1.1 2.1,-1.7 3.6,-1.8 0.8,-0.1 1.4,0.1 1.9,0.7 0.5,0.6 1.1,1.1 1.6,1.7 0.5,0.5 0.5,0.5 1,0 0.4,-0.4 0.8,-0.8 1.2,-1.1 0.9,-0.9 1.8,-1 2.9,-0.3 0.3,0.2 0.7,0.4 1,0.7 1.3,1 1.6,2.4 0.8,3.8 -0.2,0.3 -0.5,0.7 -0.7,1 -0.8,1 -1.6,2 -2.4,3.1 -0.2,0.3 -0.4,0.5 -0.5,0.8 -0.1,0.1 -0.1,0.2 0,0.3 0.1,0.2 0.3,0.1 0.4,0 0,0 0.1,0 0.1,-0.1 1.7,-1.2 3.6,-2 5.6,-2.6 2.6,-0.8 5.2,-1.8 7.8,-2.7 1.9,-0.6 3.8,-0.8 5.7,-1.2 0.2,0 0.4,0 0.6,0 0.8,0.2 1.2,0.9 0.9,1.7 -0.4,0.9 -1,1.6 -1.9,2.1 -0.6,0.4 -1.2,0.6 -1.8,0.9 -2.5,1 -5,2 -7.6,2.8 -1.6,0.5 -3.1,1.1 -4.6,1.7 -1.2,0.5 -2.3,1.1 -3.4,1.9 -0.8,0.6 -1.7,1.3 -2.6,1.9 -1.1,0.8 -2.3,1.2 -3.6,1.1 -1.1,0 -2,-0.5 -2.7,-1.4 -0.3,-0.4 -0.6,-0.8 -0.9,-1.2 -0.4,-0.5 -0.7,-0.5 -1.2,-0.2 -0.4,0.2 -0.7,0.5 -1,0.8 -0.7,0.7 -1.5,1.4 -2.5,1.7 -0.3,0.1 -0.5,0.3 -0.8,0.5 -0.6,0.4 -1.3,0.5 -1.9,0.1 C 86,64 84.9,64.1 83.7,64 c -0.3,0 -0.5,0.2 -0.7,0.3 -2.2,1.7 -4.4,3.4 -6.4,5.3 -0.9,0.9 -1.9,1.6 -3.1,2 -1.1,0.4 -2.1,0.8 -3.2,1.2 -0.6,0.2 -1.3,0.4 -2,0.4 -0.9,0.1 -1.6,-0.3 -2.2,-1 -0.4,-0.5 -0.7,-0.9 -1,-1.4 -0.1,-0.2 -0.2,-0.3 -0.4,-0.5 -0.6,-0.7 -0.9,-0.7 -1.6,0 -0.1,0.1 -0.3,0.3 -0.4,0.5 -0.8,1.1 -2.1,1.8 -2.8,3 -0.1,0.2 -0.4,0.4 -0.6,0.5 -0.7,0.4 -1.4,0.8 -2.1,1.3 C 56.6,76 56,76 55.3,75.8 54.7,75.6 54.2,75.4 53.7,75 53.1,74.6 52.6,74.1 52.3,73.4 52,72.7 51.7,72.6 51.1,73.2 c -0.8,0.6 -1.5,1.3 -2.2,2.1 -0.2,0.2 -0.4,0.4 -0.5,0.7 -0.6,0.5 -0.9,1.3 -1.3,2 -1,1.6 -2.1,3.1 -3.3,4.5 -0.4,0.9 -1.1,1.3 -2,1.4 M 90.2,59.2 c 0.5,0 0.8,-0.3 1.2,-0.6 1.6,-1.4 3.2,-2.8 4.9,-4.2 0.6,-0.5 1.1,-1.2 1.3,-1.9 0.3,-0.8 -0.1,-1.2 -0.9,-1.1 -0.6,0.1 -1,0.4 -1.4,0.8 -1.6,1.6 -3.2,3.1 -4.8,4.7 -0.4,0.4 -0.8,0.9 -1.1,1.4 -0.2,0.4 -0.2,0.6 0.2,0.8 0.1,0 0.3,0.1 0.6,0.1"
             id="path22"
             inkscape:connector-curvature="0"
             style="vector-effect:none;fill:#f3f179;fill-opacity:1;fill-rule:nonzero" />
        </g>
        <g
           transform="matrix(3.82979,0,0,3.82979,8,76.4894)"
           id="g30"
           style="fill:#f3f179;fill-opacity:1;stroke:none">
          <path
             d="m 7.9,118.2 c 0,-0.5 0.2,-0.9 0.3,-1.4 0.6,-1.5 1.2,-2.9 1.8,-4.4 0.4,-1.1 0.9,-2.1 1.5,-3.1 0.4,-0.6 0.6,-1.3 0.8,-2 0,-0.2 0.1,-0.4 0.2,-0.6 1,-2.1 1.8,-4.2 3.2,-6.1 1.8,-2.5 3.2,-5.3 4.5,-8 0.3,-0.6 0.4,-1.2 0.4,-1.8 0,-0.6 0,-1.3 0.1,-1.9 0,-0.6 0.2,-0.9 0.9,-1 1,-0.1 1.7,-0.6 2.3,-1.4 1.1,-1.5 2.3,-3 3.1,-4.6 0.4,-0.7 0.9,-1.4 1.4,-2 1.3,-1.5 2.5,-3 3.7,-4.6 0.6,-0.8 1.2,-1.5 1.9,-2.2 1.2,-1.3 2.2,-2.7 2.9,-4.3 0.6,-1.4 1.2,-2.7 1.7,-4.1 0.1,-0.3 0.3,-0.5 0.2,-0.9 -0.1,-0.7 0.2,-1.3 0.6,-1.8 0.8,-1 1.5,-2 2.1,-3 1.2,-1.8 2.2,-3.7 3,-5.7 0.5,-1.5 1.2,-3.1 1.8,-4.6 0.3,-0.6 0.3,-1.3 0.1,-1.9 -0.2,-0.6 -0.4,-1.1 -0.7,-1.7 -0.2,-0.4 -0.5,-0.6 -0.9,-0.7 -0.6,-0.1 -1.2,-0.2 -1.9,-0.2 -0.7,0 -1.2,0.4 -1.8,0.7 -1,0.5 -2,1 -3,1.5 -1,0.4 -1.9,1 -2.7,1.8 -0.6,0.7 -1.4,1.3 -2.2,1.8 -1.1,0.5 -2.2,1.2 -3.2,2 -0.5,0.4 -0.9,0.8 -1.1,1.4 -0.7,0.7 -1.7,1 -2.4,1.7 -0.4,0.4 -1,0.6 -1.5,0.5 -0.3,0 -0.5,-0.1 -0.8,-0.2 -0.9,-0.2 -1.5,0.1 -1.9,0.9 -0.1,0.3 -0.2,0.6 -0.3,0.8 -0.4,1 -1.1,1.3 -2.1,1.1 -0.8,-0.2 -1.4,-1.1 -1.3,-2 0.2,-1.3 0.7,-2.4 2,-2.9 0.3,-0.1 0.5,-0.3 0.7,-0.6 1.8,-1.8 3.6,-3.5 5.5,-5.2 0.3,-0.3 0.6,-0.5 0.8,-0.8 1.5,-1.5 3.3,-2.6 5.3,-3.3 1.6,-0.6 3.1,-1.3 4.5,-2.3 2.3,-1.7 4.9,-2.5 7.8,-2.6 2.5,0 4.2,1.4 4.7,3.8 0.3,1.6 0.7,3.2 0.9,4.8 0.2,1.2 0.3,2.5 0.3,3.8 0,0.6 -0.1,1.1 -0.4,1.7 -0.3,0.6 -0.5,1.3 -0.8,1.9 -0.5,1.6 -1.4,3 -2.5,4.2 -0.9,1.1 -1.7,2.2 -2,3.6 -0.2,0.8 -0.7,1.6 -1.1,2.3 -0.9,1.5 -1.8,3.1 -2.2,4.9 -0.2,0.7 -0.6,1.3 -1,1.9 -0.9,1.2 -2,2.4 -2.9,3.6 -0.5,0.6 -0.9,1.1 -1.3,1.7 -1.1,1.6 -2.3,3.2 -3.5,4.7 -0.2,0.2 -0.4,0.4 -0.5,0.7 -0.7,0.6 -1.1,1.4 -1.7,2.2 -1.5,2.2 -3.1,4.3 -4.8,6.4 -1.3,1.7 -2.3,3.5 -3.4,5.3 -1.1,1.7 -2.1,3.4 -3,5.2 -0.2,0.4 -0.4,0.9 -0.6,1.3 -0.8,1.8 -2,3.5 -3,5.3 -1.4,2.5 -2.7,5 -3.8,7.6 -0.5,1.2 -1,2.4 -1.8,3.5 -0.3,0.4 -0.6,0.7 -1,0.9 -0.5,0.2 -0.6,0.2 -0.9,-0.2 -0.4,-0.5 -0.7,-1 -1,-1.4"
             id="path28"
             inkscape:connector-curvature="0"
             style="vector-effect:none;fill:#f3f179;fill-opacity:1;fill-rule:nonzero" />
        </g>
        <g
           transform="matrix(3.82979,0,0,3.82979,8,76.4894)"
           id="g42"
           style="fill:#f3f179;fill-opacity:1;stroke:none">
          <path
             d="m 176.4,45.2 c -1.6,0.7 -3,1.3 -4.4,2 -1.6,0.8 -3.3,1.5 -5,2.2 -0.7,0.3 -1.4,0.4 -2.2,0.2 -0.3,-0.1 -0.6,-0.1 -1,-0.2 -0.8,-0.1 -1.5,-0.5 -2,-1.1 -0.6,-0.6 -1.1,-1.3 -1.6,-1.9 -0.5,-0.6 -0.6,-0.6 -1.4,-0.3 -0.7,0.3 -1.3,0.5 -2,0.8 -0.7,0.3 -1.3,0.5 -1.9,0.9 -1.1,0.7 -2.4,1.1 -3.7,1.4 -0.5,0.1 -0.9,0.2 -1.4,0.3 -1.6,0.3 -3.1,0.9 -4.4,2 -0.4,0.3 -0.9,0.6 -1.4,0.7 -1.7,0.6 -3.2,1.5 -4.5,2.8 -1.7,1.6 -3.6,2.6 -5.7,3.5 -1.4,0.6 -2.9,1 -4.3,1.8 -0.8,0.4 -1.6,0.4 -2.4,0.1 -0.6,-0.2 -1.1,-0.5 -1.5,-0.9 -1.1,-0.9 -1.3,-2.1 -0.5,-3.3 0.2,-0.4 0.6,-0.6 1,-0.8 0.8,-0.3 0.9,-0.5 0.9,-1.3 0,-1 0.3,-1.8 0.9,-2.6 0.2,-0.3 0.4,-0.5 0.7,-0.7 1.3,-0.9 2.1,-2.3 2.9,-3.6 0.5,-0.8 1,-1.6 1.5,-2.5 0.6,-1 1.4,-1.9 2.4,-2.5 1.1,-0.8 2.1,-1.8 3,-2.8 1.1,-1.3 2.3,-2.5 3.5,-3.8 0.3,-0.3 0.5,-0.6 0.6,-1 0.1,-0.5 0.4,-0.9 0.7,-1.3 2.3,-3 4.5,-6.1 6.9,-9 2,-2.4 4,-4.8 6.2,-7.1 1.8,-2 3.2,-4.2 4.4,-6.6 0.5,-0.89999 0.7,-1.79999 0.9,-2.69999 0.1,-0.6 0.4,-1.1 0.7,-1.7 0.3,-0.5 0.7,-0.6 1.2,-0.3 1.2,0.7 2.3,1.5 3,2.7 0.8,1.2 0.8,2.49999 0,3.69999 -0.7,1 -1.4,1.9 -2.1,2.9 -1.1,1.4 -2.3,2.6 -3.5,3.9 -2.5,2.4 -4.6,5.2 -6.7,8 -1.1,1.4 -2.1,2.9 -3.3,4.1 -0.3,0.3 -0.5,0.6 -0.7,1 -0.2,0.4 -0.4,0.8 -0.6,1.2 -1.2,2.9 -3.3,5.1 -5.5,7.2 -0.8,0.8 -1.6,1.5 -2.6,2.1 -0.8,0.5 -1.3,1.2 -1.8,1.9 -1.4,1.9 -2.8,3.7 -4.2,5.6 -0.5,0.6 -1,1.2 -1.8,1.5 -0.4,0.2 -0.8,0.5 -1.2,0.7 -0.2,0.1 -0.4,0.2 -0.5,0.3 -0.3,0.2 -0.5,0.6 -0.4,0.9 0.1,0.3 0.5,0.2 0.8,0.2 1,-0.1 2,-0.4 2.8,-1 1,-0.6 1.9,-1.3 2.8,-2 0.4,-0.3 0.8,-0.6 1.2,-1 1.1,-0.9 2.1,-1.8 3.4,-2.3 0.5,-0.2 1,-0.5 1.5,-0.9 1.7,-1.3 3.7,-1.9 5.8,-2.3 0.9,-0.2 1.7,-0.4 2.6,-0.6 1.2,-0.3 2.4,-0.9 3.4,-1.6 1,-0.8 1.4,-0.7 2.5,0 0.9,0.6 0.9,0.6 1.4,-0.3 0.5,-0.8 1,-1.6 1.6,-2.4 1.1,-1.3 2.1,-2.5 3.2,-3.8 0.4,-0.4 0.7,-0.9 0.9,-1.4 0.4,-0.9 1,-1.4 1.9,-1.7 0.3,-0.1 0.6,-0.2 0.9,-0.3 0.7,-0.2 1.3,0 1.8,0.4 0.6,0.5 1.2,1.2 1.7,1.8 0.7,0.8 0.5,2 -0.2,2.9 -0.9,1.2 -2.1,1.8 -3.2,2.8 -0.5,0.5 -1,0.9 -1.6,1.3 -0.5,0.4 -0.7,1 -0.9,1.6 -0.1,0.4 0,0.6 0.4,0.6 0.5,0.1 0.9,0 1.3,-0.2 2.3,-0.8 4.6,-1.7 6.9,-2.5 0.9,-0.3 1.7,-0.6 2.6,-0.9 0.7,-0.2 1.2,-0.6 1.7,-1.1 0.4,-0.6 0.8,-1.2 1.2,-1.8 0.5,-0.9 1.1,-1.7 1.8,-2.5 2,-2.1 3.8,-4.3 5.4,-6.8 0.3,-0.4 0.6,-0.9 0.9,-1.3 0.9,-1.1 2,-1.9 3.2,-2.4 2.4,-1 4.9,-1.2 7.5,-0.8 0.5,0.1 1.1,0.1 1.6,0.3 1.6,0.3 2.6,1.3 3.4,2.7 0.8,1.5 0.7,3 0.5,4.6 -0.2,1.1 -0.8,2 -1.7,2.6 -0.6,0.4 -1.2,0.8 -1.8,1.1 -0.6,0.3 -1.2,0.5 -1.8,0.5 -0.2,0 -0.4,0 -0.7,0.1 -0.4,0.1 -0.6,0.3 -0.6,0.7 0,2 -1.3,2.8 -2.9,3.3 -0.7,0.2 -1.2,0.5 -1.5,1.2 -0.1,0.4 -0.5,0.6 -0.8,0.8 -1.5,0.7 -3.1,0.8 -4.7,0.5 -0.3,-0.1 -0.5,-0.2 -0.7,-0.3 -0.9,-0.6 -1,-1.7 -0.3,-2.5 0.3,-0.3 0.7,-0.5 1.1,-0.6 0.6,-0.1 0.9,-0.4 1,-1 0.1,-0.9 0.6,-1.7 1.3,-2.2 1.1,-0.9 2.3,-1.7 3.7,-2 0.1,0 0.2,-0.1 0.3,-0.1 2.3,-0.6 2.3,-0.8 3.3,-2.9 0.3,-0.5 0,-0.8 -0.5,-0.7 -0.2,0 -0.3,0.1 -0.5,0.1 -1.6,0.5 -3,1.2 -4.3,2.3 -1.5,1.3 -2.8,2.8 -4.1,4.4 -2.1,2.7 -4,5.4 -5.7,8.3 -0.5,0.9 -1.3,1.7 -1.9,2.5 -0.5,0.6 -0.9,1.3 -1.1,2.1 -0.4,1.1 -1.1,2 -1.7,3 -2.7,4.4 -5.8,8.6 -8.6,12.9 -0.8,1.3 -1.6,2.6 -2.2,4 -0.1,0.2 -0.2,0.3 -0.2,0.5 -0.7,1.3 -1.8,1.9 -3.3,1.4 -0.6,-0.2 -1,-0.1 -1.5,0.3 -0.8,0.6 -1.1,0.5 -1.4,-0.5 -0.2,-0.7 -0.1,-1.3 0.1,-2 0.9,-2.2 2.2,-4.1 3.8,-5.8 1.6,-1.7 3,-3.6 4.3,-5.6 1.3,-2 2.6,-4.1 3.5,-6.4 0.3,-0.7 0.7,-1.3 1.2,-1.8 0.9,-1 1.6,-2.1 2.4,-3.1 0.2,0 0.4,-0.3 0.6,-0.8"
             id="path40"
             inkscape:connector-curvature="0"
             style="vector-effect:none;fill:#f3f179;fill-opacity:1;fill-rule:nonzero" />
        </g>
        <g
           transform="matrix(3.82979,0,0,3.82979,8,76.4894)"
           id="g48"
           style="fill:#f3f179;fill-opacity:1;stroke:none">
          <path
             d="m 235.4,31.1 c -1.4,-0.3 -2.8,0.3 -4.2,0.9 -1.9,0.9 -4,1.4 -6.2,1.3 -0.8,0 -1.6,-0.2 -2.3,-0.5 -0.7,-0.3 -1.2,-0.7 -1.7,-1.3 -0.4,-0.6 -0.5,-0.6 -1.2,-0.3 -0.6,0.3 -1.2,0.8 -1.7,1.3 -0.7,0.7 -1.4,1.4 -2.2,1.9 -1.4,1 -3,1.3 -4.7,1 -0.8,-0.2 -1.5,-0.5 -2.1,-1 -0.8,-0.6 -1.4,-1.4 -1.8,-2.2 -0.7,-1.1 -0.5,-2.1 0.4,-3.1 0.2,-0.2 0.3,-0.4 0.5,-0.6 0.6,-0.9 1.3,-1.7 2.1,-2.4 1.6,-1.5 3.2,-3 4.8,-4.4 0.7,-0.6 1.4,-1.1 2.3,-1.2 1.5,-0.2 2.9,0.1 4.2,1 0.3,0.2 0.5,0.4 0.8,0.6 0.5,0.3 0.8,0.2 1.2,-0.1 0.4,-0.4 0.8,-0.9 1.1,-1.4 1,-1.5 2.6,-1.7 3.8,-0.4 0.4,0.4 0.6,0.8 0.6,1.4 0,0.8 -0.2,1.6 -0.4,2.3 -0.2,0.7 -0.5,1.4 -0.8,2.1 -0.1,0.4 -0.3,0.8 0,1.1 0.3,0.3 0.7,0.1 1.1,0 0.3,-0.1 0.5,-0.2 0.8,-0.4 1.1,-0.7 2.2,-0.8 3.4,-0.5 0.6,0.1 1.1,0.1 1.7,0 0.7,-0.1 1.5,-0.2 2.2,-0.2 1.3,0 2.6,-0.2 3.9,-0.6 2.4,-0.7 4.9,-1.1 7.5,-1.2 1,0 2,-0.3 3,-0.5 1.7,-0.4 3.3,-0.8 5,-1.2 0.4,-0.1 0.7,-0.1 1,0 0.5,0.2 0.7,0.5 0.5,1.1 -0.1,0.2 -0.2,0.4 -0.3,0.5 -0.9,1 -1.9,1.8 -3.3,2.1 -0.9,0.2 -1.6,0.6 -2.3,1.1 -0.9,0.8 -2,1.2 -3.2,1.5 -1.7,0.4 -3.5,0.8 -5.2,1.3 -0.5,0.1 -0.9,0.2 -1.4,0.2 -1.5,0.1 -2.9,0.4 -4.4,0.6 -0.7,0.1 -1.5,0.2 -2.5,0.2"
             id="path46"
             inkscape:connector-curvature="0"
             style="vector-effect:none;fill:#f3f179;fill-opacity:1;fill-rule:nonzero" />
        </g>
        <g
           transform="matrix(3.82979,0,0,3.82979,8,76.4894)"
           id="g54"
           style="fill:#f3f179;fill-opacity:1;stroke:none">
          <path
             d="m 29.9,63.9 c -0.1,1.6 -0.4,3.1 -1.3,4.5 -1.3,2 -2.2,4.1 -3.3,6.1 -0.4,0.8 -0.6,1.8 -0.9,2.7 -0.4,1.2 -0.8,2.4 -1.4,3.6 -0.4,0.9 -0.9,1.7 -1.6,2.4 -0.6,0.6 -1,1.4 -1.3,2.1 -0.9,2 -1.8,4 -2.7,6 -0.1,0.3 -0.2,0.5 -0.4,0.7 -0.1,0.2 -0.3,0.5 -0.5,0.6 -1.1,0.7 -2.3,0.8 -3.5,0.7 -0.4,0 -0.7,-0.4 -0.9,-0.9 -0.7,-1.8 -0.8,-3.6 0.1,-5.4 0.4,-0.7 0.7,-1.4 1,-2 0.5,-1 1,-1.9 1.7,-2.7 1.1,-1.2 1.7,-2.6 2.2,-4.2 0.4,-1.5 1.1,-2.9 1.9,-4.2 0.4,-0.6 0.8,-1.1 1.3,-1.6 0.9,-0.9 1.5,-1.9 1.9,-3.1 0.9,-2.7 1.8,-5.4 2.7,-8.1 0.2,-0.6 0.4,-1.1 0.8,-1.6 0.7,-0.9 1.8,-0.9 2.5,0 0.7,0.9 1.1,1.9 1.2,3 0.5,0.4 0.6,0.9 0.5,1.4"
             id="path52"
             inkscape:connector-curvature="0"
             style="vector-effect:none;fill:#f3f179;fill-opacity:1;fill-rule:nonzero" />
        </g>
        <g
           transform="matrix(3.82979,0,0,3.82979,8,76.4894)"
           id="g60"
           style="fill:#f3f179;fill-opacity:1;stroke:none">
          <path
             d="m 127.5,45.1 c 0.7,0 1.5,0.6 1.7,1.2 0.1,0.4 0.1,0.7 -0.2,1 -0.4,0.4 -0.8,0.6 -1.4,0.5 -0.7,-0.1 -0.8,-0.8 -1,-1.3 -0.2,-0.5 -0.2,-0.9 0.2,-1.3 0.2,0 0.5,-0.1 0.7,-0.1"
             id="path58"
             inkscape:connector-curvature="0"
             style="vector-effect:none;fill:#f3f179;fill-opacity:1;fill-rule:nonzero" />
        </g>
        <g
           transform="matrix(3.82979,0,0,3.82979,8,76.4894)"
           id="g72"
           style="fill:#f3f179;fill-opacity:1;stroke:none">
          <path
             d="m 174.6,18.4 c -0.1,-0.7 0.1,-1.2 0.6,-1.7 0.4,-0.5 0.8,-1 1.3,-1.5 1.2,-1.2 2.9,-0.9 3.7,0.5 0.4,0.7 0.8,1.4 1.1,2.1 0.4,0.8 0.4,1.6 0.1,2.4 -0.3,0.9 -0.8,1.6 -1.5,2.2 -0.6,0.5 -1.6,0.5 -2.3,0.1 -0.5,-0.3 -1,-0.7 -1.6,-1.1 -1,-0.6 -1.5,-1.6 -1.4,-3"
             id="path70"
             inkscape:connector-curvature="0"
             style="vector-effect:none;fill:#f3f179;fill-opacity:1;fill-rule:nonzero" />
        </g>
      </g>
    </g>
  </g>
</svg>
